<svg width="18" height="18" viewBox="0 0 18 18" fill="none" xmlns="http://www.w3.org/2000/svg">
<path d="M11.989 9.52511V7.50014C11.989 7.30123 12.0681 7.11046 12.2088 6.96981C12.3495 6.82916 12.5403 6.75015 12.7393 6.75015H13.4896C13.6886 6.75015 13.8794 6.67113 14.0201 6.53048C14.1608 6.38983 14.2399 6.19907 14.2399 6.00015V5.25016C14.2399 5.05125 14.3189 4.86049 14.4596 4.71984C14.6003 4.57919 14.7912 4.50017 14.9902 4.50017H17.0047C17.151 4.49946 17.2941 4.45665 17.4168 4.37686C17.5394 4.29706 17.6365 4.18365 17.6965 4.05018C17.9499 3.49232 18.0473 2.87626 17.9786 2.26745C17.8928 1.63358 17.5779 1.05301 17.0933 0.635317C16.6087 0.217627 15.9879 -0.00828228 15.3481 0.000232196C14.4453 0.000289269 13.5795 0.358825 12.9411 0.996969L7.00785 6.92639C6.05146 6.67803 5.04594 6.69047 4.09598 6.96239C2.78902 7.33182 1.65984 8.16131 0.916788 9.29779C0.173739 10.4343 -0.133025 11.801 0.0531016 13.1459C0.239228 14.4908 0.905684 15.723 1.92949 16.6151C2.9533 17.5072 4.26536 17.9991 5.62357 18C5.82004 17.9998 6.01638 17.9896 6.2118 17.9692C7.32984 17.8476 8.38611 17.3951 9.24532 16.6697C10.1045 15.9443 10.7276 14.979 11.0346 13.8976C11.3075 12.9483 11.3197 11.9432 11.0699 10.9876L11.5576 10.5001C11.8169 10.2395 11.9706 9.89221 11.989 9.52511ZM4.11924 15C3.89665 15 3.67906 14.9341 3.49398 14.8104C3.30891 14.6868 3.16466 14.5111 3.07948 14.3056C2.9943 14.1 2.97201 13.8738 3.01543 13.6556C3.05886 13.4374 3.16605 13.2369 3.32344 13.0796C3.48084 12.9222 3.68137 12.8151 3.89968 12.7717C4.11799 12.7283 4.34428 12.7506 4.54993 12.8357C4.75557 12.9208 4.93134 13.065 5.055 13.25C5.17867 13.435 5.24467 13.6526 5.24467 13.8751C5.24467 14.1734 5.1261 14.4596 4.91504 14.6705C4.70398 14.8815 4.41773 15 4.11924 15Z" fill="#4541FF"/>
</svg>
