<svg width="62" height="62" viewBox="0 0 62 62" fill="none" xmlns="http://www.w3.org/2000/svg">
<rect x="62" width="62" height="62" rx="10" transform="rotate(90 62 0)" fill="#4541FF"/>
<path d="M35.4188 39.167C34.2428 40.3319 32.6549 40.9854 31 40.9854C29.3451 40.9854 27.7572 40.3319 26.5813 39.167L16.2862 28.8674C16.1066 29.4375 16.0101 30.0306 16 30.6282V39.7472C16.002 41.405 16.6611 42.9942 17.8328 44.1664C19.0044 45.3386 20.593 45.998 22.25 46H39.75C41.407 45.998 42.9956 45.3386 44.1672 44.1664C45.3389 42.9942 45.998 41.405 46 39.7472V30.6282C45.9899 30.0306 45.8934 29.4375 45.7137 28.8674L35.4188 39.167Z" fill="white"/>
<path opacity="0.5" d="M17.5312 26.5751C17.6637 26.4213 26.6 17.7988 26.6 17.7988C27.7779 16.6426 29.3631 15.9965 31.0132 16C32.6633 16.0035 34.2458 16.6564 35.4188 17.8175C35.4188 17.8175 44.3363 26.4213 44.4675 26.5714L33.6513 37.3937C32.9366 38.0752 31.9873 38.4554 31 38.4554C30.0127 38.4554 29.0634 38.0752 28.3487 37.3937L17.5312 26.5751Z" fill="white"/>
</svg>
