<svg width="118" height="36" viewBox="0 0 118 36" fill="none" xmlns="http://www.w3.org/2000/svg">
<path d="M32.5678 12.5254H40.4975V22.8887C39.4493 23.235 38.3601 23.513 37.2299 23.7227C36.0997 23.9232 34.8191 24.0234 33.3881 24.0234C31.4011 24.0234 29.7149 23.6315 28.3295 22.8477C26.9441 22.0638 25.8914 20.9062 25.1713 19.375C24.4513 17.8438 24.0912 15.9616 24.0912 13.7285C24.0912 11.6322 24.4923 9.81836 25.2944 8.28711C26.1056 6.75586 27.2859 5.57096 28.8354 4.73242C30.394 3.89388 32.2944 3.47461 34.5366 3.47461C35.5939 3.47461 36.6375 3.58854 37.6674 3.81641C38.6974 4.04427 39.6316 4.34049 40.4702 4.70508L39.062 8.0957C38.4513 7.78581 37.754 7.52604 36.9702 7.31641C36.1863 7.10677 35.366 7.00195 34.5092 7.00195C33.2787 7.00195 32.2078 7.2845 31.2963 7.84961C30.394 8.41471 29.6922 9.20768 29.1909 10.2285C28.6987 11.2402 28.4526 12.4342 28.4526 13.8105C28.4526 15.1139 28.6303 16.2715 28.9858 17.2832C29.3412 18.2858 29.9018 19.0742 30.6674 19.6484C31.433 20.2135 32.4311 20.4961 33.6616 20.4961C34.2631 20.4961 34.769 20.4688 35.1791 20.4141C35.5984 20.3503 35.9903 20.2865 36.3549 20.2227V16.0527H32.5678V12.5254Z" fill="white"/>
<path d="M53.4448 8.17773C55.1674 8.17773 56.5574 8.84766 57.6147 10.1875C58.6811 11.5273 59.2143 13.4915 59.2143 16.0801C59.2143 17.8118 58.9636 19.2702 58.4623 20.4551C57.961 21.6309 57.2683 22.5195 56.3842 23.1211C55.5001 23.7227 54.4838 24.0234 53.3354 24.0234C52.5971 24.0234 51.9636 23.9323 51.435 23.75C50.9063 23.5586 50.4552 23.3171 50.0815 23.0254C49.7078 22.7246 49.3842 22.4056 49.1108 22.0684H48.892C48.9649 22.4329 49.0196 22.8066 49.0561 23.1895C49.0926 23.5723 49.1108 23.946 49.1108 24.3105V30.4766H44.9409V8.46484H48.3315L48.9194 10.4473H49.1108C49.3842 10.0371 49.7169 9.65885 50.1088 9.3125C50.5008 8.96614 50.9702 8.69271 51.517 8.49219C52.073 8.28255 52.7156 8.17773 53.4448 8.17773ZM52.1049 11.5137C51.3758 11.5137 50.797 11.6641 50.3686 11.9648C49.9402 12.2656 49.6258 12.7168 49.4252 13.3184C49.2338 13.9199 49.129 14.681 49.1108 15.6016V16.0527C49.1108 17.0371 49.2019 17.8711 49.3842 18.5547C49.5756 19.2383 49.8901 19.7578 50.3276 20.1133C50.7742 20.4688 51.3849 20.6465 52.1596 20.6465C52.7976 20.6465 53.3217 20.4688 53.7319 20.1133C54.142 19.7578 54.4474 19.2383 54.6479 18.5547C54.8575 17.862 54.9623 17.0189 54.9623 16.0254C54.9623 14.5306 54.7299 13.4049 54.2651 12.6484C53.8002 11.8919 53.0802 11.5137 52.1049 11.5137Z" fill="white"/>
<path d="M74.7866 18.1992C74.7866 19.3841 74.4995 20.4141 73.9252 21.2891C73.351 22.1641 72.5125 22.8385 71.4096 23.3125C70.3159 23.7865 68.9851 24.0234 67.4174 24.0234C66.7247 24.0234 66.0457 23.9779 65.3803 23.8867C64.7241 23.7956 64.0906 23.6634 63.4799 23.4902C62.8784 23.3079 62.3041 23.0846 61.7573 22.8203V18.8828C62.7052 19.3021 63.6896 19.6803 64.7104 20.0176C65.7312 20.3548 66.7429 20.5234 67.7455 20.5234C68.4382 20.5234 68.9942 20.4323 69.4135 20.25C69.8419 20.0677 70.1518 19.8171 70.3432 19.498C70.5346 19.179 70.6303 18.8145 70.6303 18.4043C70.6303 17.903 70.4617 17.4746 70.1245 17.1191C69.7872 16.7637 69.3224 16.431 68.7299 16.1211C68.1466 15.8112 67.4858 15.4785 66.7475 15.123C66.2827 14.9043 65.7768 14.64 65.2299 14.3301C64.683 14.0111 64.1635 13.6237 63.6713 13.168C63.1791 12.7122 62.7735 12.1608 62.4545 11.5137C62.1446 10.8574 61.9897 10.0736 61.9897 9.16211C61.9897 7.9681 62.2631 6.94727 62.81 6.09961C63.3569 5.25195 64.1362 4.60482 65.1479 4.1582C66.1687 3.70247 67.3718 3.47461 68.7573 3.47461C69.7963 3.47461 70.7853 3.59766 71.7241 3.84375C72.672 4.08073 73.6609 4.42708 74.6909 4.88281L73.3237 8.17773C72.4031 7.80404 71.5782 7.51693 70.8491 7.31641C70.1199 7.10677 69.3771 7.00195 68.6205 7.00195C68.0919 7.00195 67.6407 7.08854 67.267 7.26172C66.8933 7.42578 66.6108 7.66276 66.4194 7.97266C66.228 8.27344 66.1323 8.62435 66.1323 9.02539C66.1323 9.49935 66.269 9.90039 66.5424 10.2285C66.825 10.5475 67.2442 10.8574 67.8002 11.1582C68.3653 11.459 69.0672 11.8099 69.9057 12.2109C70.9265 12.694 71.797 13.1999 72.517 13.7285C73.2462 14.248 73.8067 14.8633 74.1987 15.5742C74.5906 16.276 74.7866 17.151 74.7866 18.1992Z" fill="white"/>
<path d="M84.5209 20.7012C84.9767 20.7012 85.4187 20.6556 85.8471 20.5645C86.2846 20.4733 86.7175 20.3594 87.1459 20.2227V23.3262C86.6993 23.5267 86.1433 23.6908 85.478 23.8184C84.8217 23.9551 84.1017 24.0234 83.3178 24.0234C82.4064 24.0234 81.586 23.8776 80.8569 23.5859C80.1368 23.2852 79.5672 22.7702 79.1479 22.041C78.7377 21.3027 78.5327 20.2773 78.5327 18.9648V11.5957H76.5366V9.83203L78.8334 8.4375L80.0366 5.21094H82.7026V8.46484H86.9819V11.5957H82.7026V18.9648C82.7026 19.5482 82.8666 19.9857 83.1948 20.2773C83.532 20.5599 83.9741 20.7012 84.5209 20.7012Z" fill="white"/>
<path d="M96.5112 8.15039C98.562 8.15039 100.134 8.597 101.228 9.49023C102.322 10.3835 102.869 11.7415 102.869 13.5645V23.75H99.9565L99.1498 21.6719H99.0405C98.603 22.2188 98.1563 22.6654 97.7006 23.0117C97.2449 23.3581 96.7208 23.6133 96.1284 23.7773C95.5359 23.9414 94.8159 24.0234 93.9682 24.0234C93.0659 24.0234 92.2547 23.8503 91.5346 23.5039C90.8237 23.1576 90.2631 22.6289 89.853 21.918C89.4428 21.1979 89.2377 20.2865 89.2377 19.1836C89.2377 17.5612 89.8074 16.3672 90.9467 15.6016C92.086 14.8268 93.795 14.3984 96.0737 14.3164L98.726 14.2344V13.5645C98.726 12.7624 98.5164 12.1745 98.0971 11.8008C97.6778 11.4271 97.0945 11.2402 96.3471 11.2402C95.6088 11.2402 94.8842 11.3451 94.1733 11.5547C93.4623 11.7643 92.7514 12.0286 92.0405 12.3477L90.6596 9.53125C91.4708 9.10286 92.3777 8.76562 93.3803 8.51953C94.392 8.27344 95.4356 8.15039 96.5112 8.15039ZM98.726 16.668L97.1127 16.7227C95.7638 16.7591 94.825 17.0007 94.2963 17.4473C93.7768 17.8939 93.517 18.4818 93.517 19.2109C93.517 19.849 93.7039 20.3047 94.0776 20.5781C94.4513 20.8424 94.9389 20.9746 95.5405 20.9746C96.4337 20.9746 97.1856 20.7103 97.7963 20.1816C98.4161 19.653 98.726 18.901 98.726 17.9258V16.668Z" fill="white"/>
<path d="M115.706 8.17773C115.916 8.17773 116.158 8.19141 116.431 8.21875C116.714 8.23698 116.942 8.26432 117.115 8.30078L116.8 12.2109C116.664 12.1654 116.468 12.1335 116.212 12.1152C115.966 12.0879 115.752 12.0742 115.57 12.0742C115.032 12.0742 114.508 12.1426 113.997 12.2793C113.496 12.416 113.045 12.6393 112.644 12.9492C112.243 13.25 111.924 13.651 111.687 14.1523C111.459 14.6445 111.345 15.2507 111.345 15.9707V23.75H107.175V8.46484H110.333L110.949 11.0352H111.154C111.455 10.5156 111.828 10.0417 112.275 9.61328C112.731 9.17578 113.246 8.82943 113.82 8.57422C114.403 8.30989 115.032 8.17773 115.706 8.17773Z" fill="white"/>
<path fill-rule="evenodd" clip-rule="evenodd" d="M15.2371 1.30055C15.9712 2.03462 15.9712 3.22478 15.2371 3.95885L5.28804 13.9079L15.2371 23.857C15.9712 24.5911 15.9712 25.7812 15.2371 26.5153C14.503 27.2494 13.3129 27.2494 12.5788 26.5153L1.30059 15.2371C0.566519 14.503 0.566519 13.3128 1.30059 12.5788L12.5788 1.30055C13.3129 0.566483 14.503 0.566483 15.2371 1.30055Z" fill="white"/>
<path fill-rule="evenodd" clip-rule="evenodd" d="M15.7674 0.770222C16.7944 1.79718 16.7944 3.46222 15.7674 4.48918L6.3487 13.9079L15.7674 23.3267C16.7944 24.3536 16.7944 26.0187 15.7674 27.0456M15.7674 27.0456C14.7405 28.0726 13.0754 28.0726 12.0485 27.0456L0.770259 15.7674C-0.256705 14.7404 -0.256705 13.0754 0.770259 12.0484L12.0485 0.770222C13.0754 -0.256741 14.7405 -0.256741 15.7674 0.770222M14.7068 3.42852C15.148 2.98735 15.148 2.27206 14.7068 1.83088C14.2656 1.38971 13.5503 1.38971 13.1091 1.83088L1.83092 13.1091C1.38974 13.5503 1.38974 14.2656 1.83092 14.7067L13.1091 25.985C13.5503 26.4261 14.2656 26.4261 14.7068 25.985C15.148 25.5438 15.148 24.8285 14.7068 24.3873L4.75771 14.4382C4.61706 14.2976 4.53804 14.1068 4.53804 13.9079C4.53804 13.709 4.61706 13.5182 4.75771 13.3776L14.7068 3.42852Z" fill="#4541FF"/>
<path fill-rule="evenodd" clip-rule="evenodd" d="M1.30055 26.5153C0.566483 25.7812 0.566483 24.5911 1.30055 23.857L11.2496 13.9079L1.30055 3.95887C0.566483 3.2248 0.566483 2.03464 1.30055 1.30057C2.03462 0.566501 3.22478 0.566501 3.95885 1.30057L15.2371 12.5788C15.9711 13.3129 15.9711 14.503 15.2371 15.2371L3.95885 26.5153C3.22478 27.2494 2.03462 27.2494 1.30055 26.5153Z" fill="#D9D9D9"/>
<path fill-rule="evenodd" clip-rule="evenodd" d="M0.770222 27.0456C-0.256741 26.0187 -0.256741 24.3536 0.770222 23.3267L10.189 13.9079L0.770223 4.4892C-0.256741 3.46224 -0.25674 1.7972 0.770223 0.77024M0.770223 0.77024C1.79719 -0.256722 3.46222 -0.256722 4.48918 0.770242L15.7674 12.0485C16.7944 13.0754 16.7944 14.7405 15.7674 15.7674L4.48918 27.0456C3.46222 28.0726 1.79718 28.0726 0.770222 27.0456M1.83088 24.3873C1.38971 24.8285 1.38971 25.5438 1.83088 25.985C2.27206 26.4262 2.98735 26.4261 3.42852 25.985L14.7067 14.7068C15.1479 14.2656 15.1479 13.5503 14.7067 13.1091L3.42852 1.8309C2.98735 1.38972 2.27206 1.38972 1.83088 1.8309C1.38971 2.27208 1.38971 2.98737 1.83088 3.42854L11.7799 13.3776C11.9206 13.5183 11.9996 13.709 11.9996 13.9079C11.9996 14.1068 11.9206 14.2976 11.7799 14.4383L1.83088 24.3873Z" fill="#4541FF"/>
<path d="M64.5844 33.8311C64.5844 34.2542 64.4786 34.6172 64.267 34.9199C64.0587 35.2194 63.7641 35.4489 63.3832 35.6084C63.0024 35.7679 62.5499 35.8477 62.0258 35.8477C61.7621 35.8477 61.5099 35.833 61.269 35.8037C61.0314 35.7777 60.81 35.7386 60.6049 35.6865C60.3998 35.6344 60.2143 35.5693 60.0483 35.4912V34.5439C60.3185 34.6546 60.631 34.7588 60.9858 34.8564C61.3406 34.9508 61.7068 34.998 62.0844 34.998C62.4132 34.998 62.6883 34.9541 62.9096 34.8662C63.1342 34.7751 63.3035 34.6481 63.4174 34.4854C63.5314 34.3226 63.5883 34.1273 63.5883 33.8994C63.5883 33.6716 63.533 33.4811 63.4223 33.3281C63.3116 33.1719 63.1358 33.0286 62.895 32.8984C62.6573 32.7682 62.3448 32.6299 61.9575 32.4834C61.6873 32.3857 61.4415 32.2751 61.2202 32.1514C60.9988 32.0244 60.8067 31.8796 60.644 31.7168C60.4845 31.554 60.3608 31.3636 60.2729 31.1455C60.185 30.9242 60.1411 30.6702 60.1411 30.3838C60.1411 29.9899 60.2371 29.653 60.4291 29.373C60.6245 29.0931 60.8963 28.8799 61.2446 28.7334C61.5929 28.5837 61.9965 28.5088 62.4555 28.5088C62.8331 28.5088 63.1847 28.5462 63.5102 28.6211C63.839 28.696 64.1515 28.7985 64.4477 28.9287L64.1303 29.7588C63.8536 29.6449 63.5753 29.5521 63.2953 29.4805C63.0154 29.4089 62.7257 29.373 62.4262 29.373C62.1495 29.373 61.9151 29.4137 61.7231 29.4951C61.5343 29.5765 61.3894 29.6921 61.2885 29.8418C61.1909 29.9915 61.142 30.1689 61.142 30.374C61.142 30.6051 61.1941 30.7972 61.2983 30.9502C61.4024 31.1032 61.5668 31.2415 61.7914 31.3652C62.0161 31.4889 62.309 31.6208 62.6703 31.7607C63.0773 31.917 63.4223 32.083 63.7055 32.2588C63.992 32.4346 64.2101 32.6462 64.3598 32.8936C64.5095 33.1409 64.5844 33.4534 64.5844 33.8311Z" fill="white"/>
<path d="M78.3295 35.75H77.3237V29.4756H75.1557V28.6113H80.4926V29.4756H78.3295V35.75Z" fill="white"/>
<path d="M96.0346 35.75L95.2436 33.626H92.4457L91.6645 35.75H90.6245L93.3491 28.582H94.3745L97.0844 35.75H96.0346ZM94.9653 32.7568L94.2133 30.6523C94.1905 30.5807 94.1547 30.4733 94.1059 30.3301C94.0603 30.1868 94.0131 30.0387 93.9643 29.8857C93.9187 29.7327 93.8813 29.6058 93.852 29.5049C93.8194 29.6383 93.782 29.7799 93.7397 29.9297C93.6974 30.0762 93.655 30.2145 93.6127 30.3447C93.5737 30.4717 93.5411 30.5742 93.5151 30.6523L92.7534 32.7568H94.9653Z" fill="white"/>
<path d="M110.024 28.6113C110.626 28.6113 111.122 28.6862 111.513 28.8359C111.907 28.9824 112.2 29.207 112.392 29.5098C112.584 29.8092 112.68 30.1901 112.68 30.6523C112.68 31.0169 112.613 31.3245 112.48 31.5752C112.346 31.8258 112.171 32.0309 111.953 32.1904C111.738 32.3499 111.507 32.4753 111.259 32.5664L113.256 35.75H112.109L110.371 32.8301H109.057V35.75H108.056V28.6113H110.024ZM109.96 29.4609H109.057V31.9951H110.029C110.592 31.9951 111.004 31.8861 111.264 31.668C111.525 31.4466 111.655 31.1211 111.655 30.6914C111.655 30.2454 111.516 29.9297 111.24 29.7441C110.963 29.5553 110.537 29.4609 109.96 29.4609Z" fill="white"/>
</svg>
